<?xml version="1.0" encoding="UTF-8" standalone="no"?>
<!-- Created with Inkscape (http://www.inkscape.org/) -->

<svg
   width="30mm"
   height="30mm"
   viewBox="0 0 30 30"
   version="1.1"
   id="svg727"
   inkscape:version="1.2.1 (9c6d41e410, 2022-07-14)"
   sodipodi:docname="goBack.svg"
   xmlns:inkscape="http://www.inkscape.org/namespaces/inkscape"
   xmlns:sodipodi="http://sodipodi.sourceforge.net/DTD/sodipodi-0.dtd"
   xmlns="http://www.w3.org/2000/svg"
   xmlns:svg="http://www.w3.org/2000/svg">
  <sodipodi:namedview
     id="namedview729"
     pagecolor="#505050"
     bordercolor="#eeeeee"
     borderopacity="1"
     inkscape:showpageshadow="0"
     inkscape:pageopacity="0"
     inkscape:pagecheckerboard="0"
     inkscape:deskcolor="#505050"
     inkscape:document-units="mm"
     showgrid="false"
     inkscape:zoom="4.051698"
     inkscape:cx="139.2009"
     inkscape:cy="79.843067"
     inkscape:window-width="1920"
     inkscape:window-height="991"
     inkscape:window-x="-9"
     inkscape:window-y="-9"
     inkscape:window-maximized="1"
     inkscape:current-layer="layer1" />
  <defs
     id="defs724">
    <inkscape:path-effect
       effect="spiro"
       id="path-effect4917"
       is_visible="true"
       lpeversion="1" />
  </defs>
  <g
     inkscape:label="Layer 1"
     inkscape:groupmode="layer"
     id="layer1"
     transform="translate(-41.003731,-94.567162)">
    <rect
       style="fill:#442dab;fill-opacity:1;stroke-width:0.251559"
       id="rect835"
       width="30"
       height="30"
       x="41.003731"
       y="94.501862" />
    <path
       style="fill:#e6e6e6;fill-opacity:1;stroke-width:0.27537"
       d="m 46.90231,101.16265 c 2.352883,-1.83625 5.389991,-2.773798 8.368514,-2.58334 2.978523,0.190458 5.871483,1.5072 7.971327,3.62817 2.181224,2.20317 3.486476,5.2802 3.434164,8.38003 -0.05231,3.09984 -1.495578,6.17339 -3.922685,8.10234 -1.213554,0.96448 -2.654956,1.64328 -4.174679,1.94885 -1.519723,0.30556 -3.115377,0.23587 -4.598112,-0.21627 -1.482734,-0.45213 -2.848951,-1.28732 -3.915912,-2.41183 -1.066961,-1.12451 -1.830729,-2.53676 -2.172323,-4.04879 -0.07006,-0.3101 -0.122856,-0.62968 -0.08362,-0.94516 0.01962,-0.15774 0.06253,-0.31333 0.134795,-0.45491 0.07226,-0.14158 0.174425,-0.26893 0.3025,-0.36308 0.234894,-0.17267 0.547048,-0.22312 0.833244,-0.16759 0.286196,0.0555 0.54706,0.20984 0.760683,0.40823 0.427246,0.39676 0.665365,0.94977 0.952543,1.45721 0.991474,1.75192 2.718053,3.08415 4.677454,3.54565 1.959402,0.46149 4.122064,0.0287 5.720626,-1.19479 1.022756,-0.78276 1.806944,-1.86891 2.246298,-3.07957 0.439354,-1.21067 0.534804,-2.54139 0.29178,-3.80618 -0.243023,-1.26478 -0.821844,-2.46104 -1.647916,-3.44914 -0.826072,-0.98811 -1.896428,-1.76746 -3.082955,-2.26836 -1.496182,-0.63162 -3.148175,-0.81744 -4.771916,-0.78641 -1.623742,0.031 -3.235048,0.27111 -4.848076,0.4599 -0.425297,0.0498 -0.856246,0.096 -1.280407,0.0373 -0.424162,-0.0587 -0.847169,-0.23354 -1.124592,-0.55972 -0.190005,-0.2234 -0.302949,-0.51113 -0.315643,-0.80413 -0.01269,-0.29299 0.07494,-0.58942 0.244913,-0.82841 z"
       id="path4915"
       inkscape:path-effect="#path-effect4917"
       inkscape:original-d="m 46.90231,101.16265 c -0.02386,-0.54445 10.893514,0.69682 16.339841,1.04483 5.446327,0.34801 -10.232745,7.83648 -15.349547,11.75433 -5.116802,3.91784 0.236072,-1.17517 0.353676,-1.76315 0.117606,-0.58798 1.697933,1.13216 2.54647,1.69785 0.848535,0.56568 6.932339,1.5675 10.39808,2.35086 3.465739,0.78336 -1.461576,-8.4019 -2.192793,-12.60325 -0.731218,-4.201352 -6.413042,-0.21741 -9.619992,-0.32651 -3.206952,-0.1091 -1.603047,-0.34801 -2.404999,-0.52242 -0.801953,-0.1744 -0.04687,-1.0881 -0.07073,-1.63254 z" />
    <path
       style="fill:#e6e6e6;fill-opacity:1;stroke-width:0.424768"
       d="m 48.706509,98.615876 2.1578,7.640304 -7.44441,-1.62991 z"
       id="path5079" />
  </g>
</svg>
