<?xml version="1.0" encoding="UTF-8" standalone="no"?>
<!-- Created with Inkscape (http://www.inkscape.org/) -->

<svg
   width="210mm"
   height="297mm"
   viewBox="0 0 210 297"
   version="1.1"
   id="svg5"
   inkscape:version="1.2.1 (9c6d41e410, 2022-07-14)"
   sodipodi:docname="mainCharacter.svg"
   xmlns:inkscape="http://www.inkscape.org/namespaces/inkscape"
   xmlns:sodipodi="http://sodipodi.sourceforge.net/DTD/sodipodi-0.dtd"
   xmlns="http://www.w3.org/2000/svg"
   xmlns:svg="http://www.w3.org/2000/svg">
  <sodipodi:namedview
     id="namedview7"
     pagecolor="#505050"
     bordercolor="#eeeeee"
     borderopacity="1"
     inkscape:showpageshadow="0"
     inkscape:pageopacity="0"
     inkscape:pagecheckerboard="0"
     inkscape:deskcolor="#505050"
     inkscape:document-units="mm"
     showgrid="false"
     inkscape:zoom="0.71624579"
     inkscape:cx="378.36173"
     inkscape:cy="450.26443"
     inkscape:window-width="1920"
     inkscape:window-height="991"
     inkscape:window-x="-9"
     inkscape:window-y="-9"
     inkscape:window-maximized="1"
     inkscape:current-layer="layer6" />
  <defs
     id="defs2">
    <inkscape:path-effect
       effect="bspline"
       id="path-effect21239"
       is_visible="true"
       lpeversion="1"
       weight="33.333333"
       steps="2"
       helper_size="0"
       apply_no_weight="true"
       apply_with_weight="true"
       only_selected="false" />
    <inkscape:path-effect
       effect="bspline"
       id="path-effect21177"
       is_visible="true"
       lpeversion="1"
       weight="33.333333"
       steps="2"
       helper_size="0"
       apply_no_weight="true"
       apply_with_weight="true"
       only_selected="false" />
    <inkscape:path-effect
       effect="bspline"
       id="path-effect21117"
       is_visible="true"
       lpeversion="1"
       weight="33.333333"
       steps="2"
       helper_size="0"
       apply_no_weight="true"
       apply_with_weight="true"
       only_selected="false" />
    <inkscape:path-effect
       effect="bspline"
       id="path-effect13104"
       is_visible="true"
       lpeversion="1"
       weight="33.333333"
       steps="2"
       helper_size="0"
       apply_no_weight="true"
       apply_with_weight="true"
       only_selected="false" />
    <inkscape:path-effect
       effect="spiro"
       id="path-effect5722"
       is_visible="true"
       lpeversion="1" />
  </defs>
  <g
     inkscape:groupmode="layer"
     id="layer6"
     inkscape:label="Layer -3">
    <rect
       style="fill:#e7c892;fill-opacity:1;stroke-width:0.236046"
       id="rect21171"
       width="20.686565"
       height="15.514924"
       x="88.656708"
       y="100.47762" />
    <rect
       style="fill:#e7c892;fill-opacity:1;stroke-width:0.264583"
       id="rect21173"
       width="1.1082089"
       height="3.3246269"
       x="103.80224"
       y="110.08208" />
  </g>
  <g
     inkscape:groupmode="layer"
     id="layer5"
     inkscape:label="Layer -2">
    <path
       style="fill:#6a2c03;fill-opacity:1;stroke-width:0.264583"
       d="m 80.529851,25.858209 h 7.388058 L 90.503732,2.2164178 Z"
       id="path12764" />
    <path
       style="fill:#6a2c03;fill-opacity:1;stroke-width:0.264583"
       d="m 101.95522,26.227612 10.34329,3.324627 c 0.88118,-12.215952 5.75131,-17.437072 0.73881,-21.7947762 z"
       id="path13090"
       sodipodi:nodetypes="cccc" />
    <path
       style="fill:#6a2c03;fill-opacity:1;stroke-width:0.264583"
       d="m 123.01119,33.985074 9.60448,5.541044 7.75746,-10.712685 z"
       id="path13092" />
    <path
       style="fill:#6a2c03;fill-opacity:1;stroke-width:0.264583"
       d="m 112.29851,30.660448 8.49626,2.58582 2.21642,-12.190299 z"
       id="path13094" />
    <path
       style="fill:#6a2c03;fill-opacity:1;stroke-width:0.264583"
       d="m 116.36194,34.354477 8.86567,2.216417 11.45149,-21.05597 z"
       id="path13096" />
    <path
       style="fill:#6a2c03;fill-opacity:1;stroke-width:0.264583"
       d="m 94.19776,28.813433 9.97388,-0.369404 V 12.5597 Z"
       id="path13098" />
    <path
       style="fill:#6a2c03;fill-opacity:1;stroke-width:0.264583"
       d="M 71.294776,29.921643 77.574627,25.119402 63.537314,19.578358 Z"
       id="path13100" />
    <path
       style="fill:#b3b3b3;fill-opacity:1;stroke-width:0.264583"
       d="m 110.69793,111.0673 c 2.33958,-3.32481 9.35823,-4.92556 14.89934,-3.44774 5.54112,1.47782 9.60447,6.0337 12.25183,9.35836 2.64737,3.32467 3.87869,5.41791 -0.49263,6.4644 -4.37133,1.04648 -14.34502,1.04648 -20.50182,-1.47766 -6.15679,-2.52414 -8.4963,-7.57255 -6.15672,-10.89736 z"
       id="path21175"
       inkscape:path-effect="#path-effect21177"
       inkscape:original-d="m 106.01865,109.34328 c 7.01893,-1.60048 14.03758,-3.20123 21.05597,-4.80224 4.06378,4.55633 8.12713,9.11221 12.1903,13.66791 1.23163,2.09359 2.46295,4.18684 3.69403,6.27985 -9.97381,2.7e-4 -19.9475,2.7e-4 -29.92164,0 -2.33933,-5.04834 -4.67884,-10.09675 -7.01866,-15.14552 z" />
    <path
       style="fill:#ffff61;fill-opacity:1;stroke-width:0.264583"
       d="m 116.66994,114.26868 c 5.97215,4e-5 15.57663,1.97019 20.74819,3.87892 5.17156,1.90874 5.91035,3.75572 5.66404,5.11002 -0.24632,1.35431 -1.47764,2.21623 -3.81712,2.64722 -2.33949,0.43099 -5.78718,0.43099 -9.97377,-0.18466 -4.18659,-0.61564 -9.11187,-1.84696 -13.11376,-3.20142 -4.0019,-1.35445 -7.08019,-2.83203 -7.44972,-4.55602 -0.36952,-1.72399 1.96998,-3.6941 7.94214,-3.69406 z"
       id="path21237"
       inkscape:path-effect="#path-effect21239"
       inkscape:original-d="m 113.03731,112.29851 c 9.60474,1.97042 19.20922,3.94057 28.81343,5.91045 0.73909,1.84732 1.47788,3.6943 2.21642,5.54105 -1.2311,0.86222 -2.46242,1.72414 -3.69403,2.58582 -3.44757,2.6e-4 -6.89526,2.6e-4 -10.34328,0 -4.92521,-1.23111 -9.85049,-2.46242 -14.77612,-3.69403 -3.07816,-1.47738 -6.15645,-2.95496 -9.23508,-4.43284 2.33987,-1.96992 4.67937,-3.94003 7.01866,-5.91045 z" />
  </g>
  <g
     inkscape:groupmode="layer"
     id="layer4"
     inkscape:label="Layer -1">
    <path
       style="fill:#7d3403;fill-opacity:1;stroke-width:0.264583"
       d="m 113.40671,34.354477 12.55971,3.69403 c 5.11952,-4.077735 9.90062,-9.847596 14.0373,-18.839553 z"
       id="path10714"
       sodipodi:nodetypes="cccc" />
    <path
       style="fill:#7d3403;fill-opacity:1;stroke-width:0.264583"
       d="m 96.78358,10.343283 -2.58582,18.100746 11.82089,1.477614 C 102.9403,23.956541 98.753729,17.838497 96.78358,10.343283 Z"
       id="path10716"
       sodipodi:nodetypes="cccc" />
    <path
       style="fill:#7d3403;fill-opacity:1;stroke-width:0.264583"
       d="m 108.60448,28.813433 c 0.26496,-7.872099 5.89178,-13.306993 16.99254,-16.253731 -6.23438,5.085588 -10.9536,10.820525 -10.34329,18.839551 z"
       id="path10718"
       sodipodi:nodetypes="cccc" />
    <path
       style="fill:#7d3403;fill-opacity:1;stroke-width:0.264583"
       d="M 78.313433,28.444029 C 81.268657,28.074626 91.242536,26.227612 91.242536,26.227612 82.314788,20.141404 81.868088,11.632039 79.421641,3.6940298 Z"
       id="path10720"
       sodipodi:nodetypes="cccc" />
    <path
       style="fill:#7d3403;fill-opacity:1;stroke-width:0.264583"
       d="M 72.772386,27.705223 77.94403,24.011195 C 74.058769,13.238183 66.047362,16.21899 59.47388,14.406716 c 4.945895,3.577737 11.079626,5.175745 13.298506,13.298507 z"
       id="path10722"
       sodipodi:nodetypes="cccc" />
    <path
       style="fill:#7d3403;fill-opacity:1;stroke-width:0.264583"
       d="m 88.656715,26.227612 h 7.018658 C 96.342318,18.288879 89.874182,12.728507 84.962687,6.6492538 Z"
       id="path11964"
       sodipodi:nodetypes="cccc" />
    <path
       style="fill:#7d3403;fill-opacity:1;stroke-width:0.264583"
       d="m 69.078359,34.354477 3.324627,-5.910448 c -8.861595,-6.737319 -14.293471,-3.075647 -25.119404,2.955226 9.423927,0.128439 15.20805,-7.576283 21.794777,2.955222 z"
       id="path11966"
       sodipodi:nodetypes="cccc" />
  </g>
  <g
     inkscape:label="Layer 1"
     inkscape:groupmode="layer"
     id="layer1">
    <path
       style="fill:#e7c892;fill-opacity:1;stroke-width:0.264583"
       d="M 74.619403,45.067164 74.25,81.268655 c 3.895665,6.8228 4.384624,12.79392 15.514925,21.425365 l 16.992535,-0.7388 c 11.04639,-4.278245 16.43783,-11.136375 23.27238,-23.641786 2.49445,-32.033519 -0.72372,-20.576061 -1.1082,-30.660449"
       id="path1516"
       sodipodi:nodetypes="cccccc" />
    <path
       style="fill:#b3b3b3;fill-opacity:1;stroke-width:0.264583"
       d="m 74.619403,25.119402 c -7.337271,-0.08928 -7.013604,4.928741 -8.865671,8.496268 v 7.757464 c 1.567329,4.639511 4.999972,4.61574 8.496268,4.432835 l 54.30224,2.58582 c 4.37559,0.390193 7.31549,-1.014225 7.75747,-5.541044 1.60226,-13.167297 -10.78234,-9.895284 -12.5597,-10.343282 -14.59414,-7.216622 -31.611668,-7.970902 -49.130607,-7.388061 z"
       id="path1776"
       sodipodi:nodetypes="cccccccc" />
    <ellipse
       style="fill:#666666;fill-opacity:1;stroke-width:0.218053"
       id="path1882"
       cx="130.21454"
       cy="40.634323"
       rx="4.6175375"
       ry="4.8022389" />
    <rect
       style="fill:#333333;fill-opacity:1;stroke-width:0.347222"
       id="rect2040"
       width="3.3246267"
       height="11.451492"
       x="74.25"
       y="30.291044" />
    <rect
       style="fill:#333333;fill-opacity:1;stroke-width:0.363635"
       id="rect2040-3"
       width="3.3246267"
       height="12.559702"
       x="81.822762"
       y="30.106348" />
    <rect
       style="fill:#333333;fill-opacity:1;stroke-width:0.363635"
       id="rect2040-3-1"
       width="3.3246267"
       height="12.559702"
       x="89.949623"
       y="30.291044" />
    <rect
       style="fill:#333333;fill-opacity:1;stroke-width:0.363635"
       id="rect2040-3-18"
       width="3.3246267"
       height="12.559702"
       x="98.4459"
       y="30.660444" />
    <rect
       style="fill:#333333;fill-opacity:1;stroke-width:0.363635"
       id="rect2040-3-18-0"
       width="3.3246267"
       height="12.559702"
       x="108.78919"
       y="31.399252" />
  </g>
  <g
     inkscape:groupmode="layer"
     id="layer2"
     inkscape:label="Layer 2">
    <ellipse
       style="fill:#ececec;fill-opacity:1;stroke-width:0.264583"
       id="path3680"
       cx="109.89738"
       cy="63.352608"
       rx="6.0951495"
       ry="9.419776" />
    <ellipse
       style="fill:#ececec;fill-opacity:1;stroke-width:0.264583"
       id="path3682"
       cx="85.886192"
       cy="62.613808"
       rx="5.3563433"
       ry="8.3115673" />
    <ellipse
       style="fill:#000000;fill-opacity:1;stroke-width:0.237785"
       id="path3736"
       cx="109.52798"
       cy="65.199623"
       rx="3.8787315"
       ry="6.4645519" />
    <ellipse
       style="fill:#000000;fill-opacity:1;stroke-width:0.224459"
       id="path3738"
       cx="85.886192"
       cy="64.276123"
       rx="3.5093281"
       ry="5.5410447" />
    <ellipse
       style="fill:#ececec;fill-opacity:1;stroke-width:0.264583"
       id="path4518"
       cx="111.74441"
       cy="62.983208"
       rx="2.7705224"
       ry="3.1399255" />
    <ellipse
       style="fill:#ececec;fill-opacity:1;stroke-width:0.224852"
       id="path4520"
       cx="87.733208"
       cy="61.874992"
       rx="2.4011195"
       ry="3.1399255" />
    <path
       style="fill:#000000;fill-opacity:1;stroke-width:0.264583"
       id="path4752"
       d="m 95.807416,69.233778 c -0.496057,1.482934 -1.357223,2.785718 -2.113174,4.140075 -0.585698,0.994961 -1.202074,1.978353 -1.689195,3.026564 -0.292214,0.598699 -0.645383,1.164434 -0.966568,1.748814 0,0 0.857652,0.492789 0.857652,0.492789 v 0 c 0.32249,-0.586145 0.674351,-1.155518 0.966912,-1.756524 0.482306,-1.047803 1.099428,-2.028166 1.67795,-3.024484 0.755362,-1.35767 1.615387,-2.663285 2.126451,-4.142708 0,0 -0.860028,-0.484526 -0.860028,-0.484526 z" />
    <path
       style="fill:#000000;fill-opacity:1;stroke-width:0.264583"
       id="path4754"
       d="m 92.039969,79.342674 c 1.220203,-0.004 2.440419,-0.0021 3.660627,-0.0011 0.844224,7.94e-4 1.688446,0.0011 2.532671,0.0013 0.511283,7.2e-5 0.248936,1.59e-4 0.787042,-2.64e-4 0,0 -0.799105,-0.580586 -0.799105,-0.580586 v 0 c -0.539038,-5.29e-4 -0.27641,-2.65e-4 -0.787879,-2.65e-4 -0.843012,1.8e-4 -1.686025,5.29e-4 -2.529038,0.0013 -1.221272,0.0011 -2.442548,0.0028 -3.663818,-0.0011 0,0 0.7995,0.580871 0.7995,0.580871 z" />
    <path
       style="fill:#ececec;fill-opacity:1;stroke-width:0.293528"
       d="m 91.867679,86.809695 c 7.730985,0.12874 15.124741,-4.2397 22.277851,-4.43283 0.1691,3.84403 -1.14067,7.47679 -7.8143,10.34328 l -15.827498,-1.10821 z"
       id="path4862"
       sodipodi:nodetypes="ccccc" />
    <path
       style="fill:#999999;fill-opacity:1;stroke-width:0.264583"
       id="path5096"
       d="m 104.19016,88.528925 c 1.24013,-0.34173 2.48295,-0.67135 3.72604,-1.00137 1.11737,-0.24771 2.254,-0.40865 3.36457,-0.68646 0.15435,-0.04 0.30871,-0.08 0.46306,-0.12006 0,0 -0.81203,-0.55906 -0.81203,-0.55906 v 0 c -0.15387,0.0399 -0.30773,0.0798 -0.46159,0.11967 -1.11216,0.27081 -2.24693,0.43765 -3.36333,0.68955 -1.2405,0.3324 -2.47936,0.67074 -3.72438,0.98613 0,0 0.80766,0.5716 0.80766,0.5716 z" />
    <path
       style="fill:#e7c892;fill-opacity:1;stroke-width:0.264583"
       d="m 125.59701,59.473881 c -1.06273,-1.546853 -1.38655,-3.578649 -0.85731,-5.37922 0.52923,-1.800572 1.90096,-3.334003 3.63168,-4.059788 1.73072,-0.725785 3.7859,-0.629447 5.44114,0.255056 1.65523,0.884503 2.8775,2.539528 3.23598,4.381712 0.3258,1.674227 -0.0343,3.404689 -0.52315,5.038776 -0.48881,1.634087 -1.11047,3.242875 -1.32386,4.935105 -0.14989,1.188623 -0.0946,2.393062 -0.17052,3.588691 -0.0759,1.195629 -0.29665,2.417857 -0.93769,3.429964 -0.41198,0.650464 -0.99052,1.194476 -1.66508,1.565706 -0.67455,0.371231 -1.44369,0.568896 -2.21365,0.568896 -0.76996,0 -1.5391,-0.197665 -2.21365,-0.568896 -0.67456,-0.37123 -1.2531,-0.915242 -1.66508,-1.565706"
       id="path5720"
       inkscape:path-effect="#path-effect5722"
       inkscape:original-d="m 125.59701,59.473881 c 3.57116,-1.477348 7.63459,-3.201228 11.45149,-4.80224 3.8169,-1.60101 -1.23108,6.649519 -1.84701,9.973881 -0.61594,3.324363 -0.73854,4.679368 -1.10821,7.018655 -0.36967,2.33929 -5.17138,2.65e-4 -7.75746,0" />
    <path
       style="fill:#af8c00;fill-opacity:1;stroke-width:0.264583"
       id="path5850"
       d="m 129.97321,55.500726 c 1.05178,-0.662001 1.76505,-0.963803 3.02065,-0.900415 -0.27324,-0.100978 1.17718,0.246671 0.87621,0.328663 -0.1669,0.04547 -0.33749,-0.304075 -0.47769,-0.202761 -0.12083,0.08731 0.20683,0.215056 0.3027,0.329208 0.26876,0.319982 0.29212,0.385247 0.50975,0.736013 0.46721,0.780769 0.45896,1.616403 0.38353,2.489658 -0.23592,1.106236 -0.83464,2.105601 -1.32873,3.114886 -0.39258,0.947362 -0.85753,1.86186 -1.17031,2.840048 -0.18169,0.537049 -0.21328,1.048761 -0.11393,1.600597 0,0 0.88913,0.431554 0.88913,0.431554 v 0 c -0.11438,-0.537226 -0.0862,-1.030719 0.0895,-1.557549 0.30684,-0.975588 0.77156,-1.884932 1.15982,-2.829333 0.49708,-1.021193 1.10123,-2.029634 1.34989,-3.144451 0.0794,-0.888047 0.10481,-1.743646 -0.35669,-2.546167 -0.6414,-1.075944 -1.62327,-1.983981 -2.90732,-2.17211 -1.20441,-0.03442 -2.05503,0.301006 -3.06063,0.948108 0,0 0.83408,0.534051 0.83408,0.534051 z" />
    <path
       style="fill:#7d3403;fill-opacity:1;stroke-width:0.264583"
       d="M 92.720149,102.69403 H 104.17164 L 98.261193,93.458955 Z"
       id="path6494" />
    <path
       style="fill:#7d3403;fill-opacity:1;stroke-width:0.304668"
       d="m 104.7008,52.767445 c -1.04246,-0.944551 3.7538,-4.409626 7.19455,-5.197534 3.44074,-0.787909 5.52545,1.101092 3.1272,2.833528 -2.39825,1.732436 -9.27929,3.308557 -10.32175,2.364006 z"
       id="path13102"
       inkscape:path-effect="#path-effect13104"
       inkscape:original-d="m 98.861714,55.288234 c 4.796826,-3.465062 9.593086,-6.930137 14.389276,-10.395586 2.0852,1.889247 4.16991,3.778249 6.25427,5.667123 -6.88091,1.576327 -13.76195,3.152447 -20.643546,4.728463 z"
       sodipodi:nodetypes="cccc" />
    <path
       style="fill:#e7c892;fill-opacity:1;stroke-width:0.264583"
       id="path13618"
       d="m 121.66839,82.39163 c -0.42527,0.830617 -0.95792,1.642012 -1.26328,2.529565 -0.2082,0.605142 -0.19793,0.964141 -0.25316,1.601692 0.0312,0.659911 -0.0447,1.674389 0.65595,2.064269 1.16144,0.64631 0.79403,0.620844 1.54866,0.546552 0.96788,-0.622154 1.59526,-1.607873 2.06486,-2.633948 0.0738,-0.207428 0.28393,-0.755595 0.30896,-0.987457 0.0762,-0.70608 -0.69717,-0.968084 -1.31287,-1.036886 -0.16511,-0.01844 -0.27517,0.186256 -0.41275,0.279384 -0.14332,0.131683 -0.3252,0.231021 -0.42997,0.395055 -0.3424,0.536077 -0.28188,1.411139 -0.43596,2.008338 -0.18053,0.699722 -0.27934,0.831474 -0.58603,1.490136 -0.80196,1.348994 -2.0726,2.344489 -3.39011,3.161652 -0.98215,0.494839 -1.99464,0.941657 -2.85725,1.633108 0,0 0.83639,0.525526 0.83639,0.525526 v 0 c 0.86165,-0.68377 1.86927,-1.127675 2.84187,-1.629473 1.32936,-0.83489 2.6099,-1.841161 3.4178,-3.210576 0.31366,-0.669623 0.41201,-0.798981 0.59871,-1.510059 0.13185,-0.502163 0.13294,-1.521762 0.40991,-1.95117 0.1028,-0.159371 0.2825,-0.2531 0.42375,-0.37965 0.62224,-0.376672 0.5011,-0.134274 -0.21246,-0.74276 -0.0604,-0.05151 0.15151,0.07696 0.18635,0.148291 0.20882,0.427382 -0.14378,0.924909 -0.24219,1.323282 -0.44973,0.989962 -1.05275,1.976099 -2.01336,2.540519 -0.57037,0.01458 -0.36487,-0.06027 0.17408,0.398152 0.0888,0.07557 -0.20712,-0.116157 -0.28504,-0.202956 -0.43819,-0.488193 -0.39938,-1.171586 -0.42458,-1.779511 0.0491,-0.597133 0.0431,-1.003408 0.23765,-1.572302 0.30152,-0.881888 0.83651,-1.68906 1.26857,-2.50806 0,0 -0.8545,-0.500713 -0.8545,-0.500713 z" />
  </g>
  <g
     inkscape:groupmode="layer"
     id="layer3"
     inkscape:label="Layer 3">
    <path
       style="fill:#7d3403;fill-opacity:1;stroke-width:0.264583"
       d="m 75.358207,45.805969 c 3.01301,4.186567 3.389413,8.373135 1.477613,12.559702 4.276041,-1.757542 5.152442,-6.914723 5.541045,-12.559702 z"
       id="path9977"
       sodipodi:nodetypes="cccc" />
    <path
       style="fill:#7d3403;fill-opacity:1;stroke-width:0.264583"
       d="m 82.007461,45.805969 h 9.604478 c -2.436659,6.445032 -2.760401,9.273659 -8.865671,18.470149 1.231034,-6.846021 2.802085,-13.964055 -0.738807,-16.992535 z"
       id="path9979"
       sodipodi:nodetypes="ccccc" />
    <path
       style="fill:#7d3403;fill-opacity:1;stroke-width:0.264583"
       d="M 91.242537,46.175373 99.738805,45.80597 C 95.820833,58.433325 90.121948,64.25202 87.179103,69.078357 90.216549,61.780623 93.033057,54.438701 91.242537,46.175373 Z"
       id="path9981"
       sodipodi:nodetypes="cccc" />
    <path
       style="fill:#7d3403;fill-opacity:1;stroke-width:0.278895"
       d="m 119.31716,47.652986 8.49627,0.410444 v 21.753734 l -2.95522,-6.567165 -3.32463,3.283583 z"
       id="path9983" />
  </g>
</svg>
