<?xml version="1.0" encoding="UTF-8" standalone="no"?>
<!-- Created with Inkscape (http://www.inkscape.org/) -->

<svg
   width="225.42195mm"
   height="79.668236mm"
   viewBox="0 0 225.42195 79.668233"
   version="1.1"
   id="svg699"
   inkscape:version="1.2.1 (9c6d41e410, 2022-07-14)"
   sodipodi:docname="name.svg"
   xmlns:inkscape="http://www.inkscape.org/namespaces/inkscape"
   xmlns:sodipodi="http://sodipodi.sourceforge.net/DTD/sodipodi-0.dtd"
   xmlns="http://www.w3.org/2000/svg"
   xmlns:svg="http://www.w3.org/2000/svg">
  <sodipodi:namedview
     id="namedview701"
     pagecolor="#505050"
     bordercolor="#eeeeee"
     borderopacity="1"
     inkscape:showpageshadow="0"
     inkscape:pageopacity="0"
     inkscape:pagecheckerboard="0"
     inkscape:deskcolor="#505050"
     inkscape:document-units="mm"
     showgrid="false"
     inkscape:zoom="1.0129245"
     inkscape:cx="851.98847"
     inkscape:cy="102.673"
     inkscape:window-width="1920"
     inkscape:window-height="991"
     inkscape:window-x="-9"
     inkscape:window-y="-9"
     inkscape:window-maximized="1"
     inkscape:current-layer="layer1" />
  <defs
     id="defs696" />
  <g
     inkscape:label="Layer 1"
     inkscape:groupmode="layer"
     id="layer1"
     transform="translate(-88.404648,-118.7367)">
    <text
       xml:space="preserve"
       style="font-size:3.175px;fill:#00ff00;stroke-width:0.264583"
       x="53.563435"
       y="56.518654"
       id="text757"><tspan
         sodipodi:role="line"
         id="tspan755"
         style="stroke-width:0.264583"
         x="53.563435"
         y="56.518654" /></text>
    <text
       xml:space="preserve"
       style="font-size:66.7246px;fill:#28170b;stroke-width:5.56038"
       x="62.291256"
       y="185.30028"
       id="text761"
       transform="scale(1.3137022,0.76120755)"><tspan
         sodipodi:role="line"
         id="tspan759"
         style="fill:#28170b;stroke-width:5.56038"
         x="62.291256"
         y="185.30028" /></text>
    <text
       xml:space="preserve"
       style="font-style:normal;font-variant:normal;font-weight:normal;font-stretch:normal;font-size:37.1583px;font-family:'Yu Gothic';-inkscape-font-specification:'Yu Gothic';fill:#2b1100;stroke-width:3.09652"
       x="71.24765"
       y="200.99669"
       id="text969"
       transform="scale(1.334957,0.7490878)"><tspan
         sodipodi:role="line"
         style="font-style:normal;font-variant:normal;font-weight:normal;font-stretch:normal;font-family:'Yu Gothic';-inkscape-font-specification:'Yu Gothic';stroke-width:3.09652"
         x="71.24765"
         y="200.99669"
         id="tspan971">kevin</tspan><tspan
         sodipodi:role="line"
         style="font-style:normal;font-variant:normal;font-weight:normal;font-stretch:normal;font-family:'Yu Gothic';-inkscape-font-specification:'Yu Gothic';stroke-width:3.09652"
         x="71.24765"
         y="247.44456"
         id="tspan975">Steevens</tspan></text>
    <ellipse
       style="fill:#008080;stroke-width:0.207125"
       id="path1137"
       cx="179.71068"
       cy="127.20798"
       rx="6.7913914"
       ry="7.052598" />
    <path
       style="fill:#008080;stroke-width:0.225695"
       id="path1188"
       d="m 90.726804,193.93034 c 3.513892,-0.11254 7.029324,-0.10981 10.544006,-0.11503 4.33577,-0.14499 8.65492,0.42285 12.97384,0.84558 2.59013,0.21458 5.18105,0.45644 7.77587,0.53107 2.426,-0.0131 4.85195,-0.009 7.27791,0.0153 1.90543,0.0178 3.81092,-0.008 5.7163,-0.0254 3.12908,-0.0373 6.25815,-0.0273 9.38721,5.3e-4 3.59619,0.008 7.19217,-0.0556 10.78836,-0.0698 3.3639,-0.0152 6.72752,0.0446 10.09115,0.0907 1.18851,0.0212 2.37694,0.0229 3.56549,0.0145 1.7914,-0.0119 3.58281,-0.0179 5.37421,-0.0251 3.12038,-0.044 6.24084,-0.0385 9.36128,-0.0194 2.24043,0.0118 4.48088,0.0235 6.72132,0.0248 2.2465,-0.0125 4.49296,-0.0144 6.73946,-0.002 1.96885,0.0296 3.93762,-0.0459 5.90526,0.0612 2.36379,0.14006 4.70598,0.6186 7.05796,0.9404 1.85065,0.22352 3.7084,0.29242 5.56534,0.30533 2.35814,0.0115 4.7163,-0.007 7.07445,-0.0148 2.36558,-0.0112 4.7311,0.0279 7.09663,0.004 2.66083,-0.0204 5.32171,-0.007 7.98256,-0.002 2.58372,0.002 5.16745,-0.01 7.75117,-0.002 2.05722,0.0148 4.11441,0.0163 6.17164,0.0181 2.30003,0.005 4.60001,-0.0167 6.90001,-0.0277 3.18738,-0.0127 6.37477,-0.0236 9.56213,0.005 2.29824,0.0365 4.59654,0.008 6.89484,0.004 2.83155,-0.024 5.66302,-0.0119 8.49458,0.006 1.92162,0.0118 3.84322,0.006 5.76482,0.0241 1.55917,0.009 3.1183,-0.0103 4.67749,-0.003 1.97924,-0.0107 3.95839,-0.0235 5.93771,-0.005 1.05768,-0.0344 2.12051,0.0982 3.17631,-0.0118 1.08333,-0.21786 2.13589,-0.65326 3.21035,-0.9428 0.75762,-0.20869 1.52692,-0.2887 2.29766,-0.3199 0.12298,-0.002 0.24596,-0.005 0.36897,-0.007 0,0 -2.31685,-2.30471 -2.31685,-2.30471 v 0 c -0.12416,0.004 -0.2483,0.007 -0.37244,0.011 -0.77537,0.0389 -1.54551,0.16869 -2.3046,0.39357 -1.06553,0.30871 -2.11807,0.74772 -3.20541,0.87982 -1.03526,0.0603 -2.07273,0.0193 -3.10855,0.0507 -1.98287,0.0185 -3.96558,0.005 -5.9484,-0.005 -1.56139,0.007 -3.12273,-0.0127 -4.68412,-0.003 -1.90547,0.0181 -3.81095,0.0122 -5.71643,0.0241 -2.82772,0.0178 -5.65534,0.0296 -8.48308,0.006 -2.29577,-0.004 -4.59157,-0.0328 -6.8873,0.004 -3.18396,0.0292 -6.36797,0.0174 -9.55197,0.005 -2.31852,-0.011 -4.63701,-0.0328 -6.95557,-0.0277 -2.0451,0.002 -4.0902,0.003 -6.13531,0.0181 -2.58532,0.007 -5.17063,-0.004 -7.75593,-0.002 -2.66216,0.005 -5.3243,0.018 -7.98644,-0.002 -2.35978,-0.0219 -4.71951,0.0193 -7.07935,0.0131 -2.37239,-0.003 -4.74484,-0.006 -7.11717,-0.0333 -1.85021,-0.0416 -3.70236,-0.0856 -5.54582,-0.32749 -2.34881,-0.32095 -4.69177,-0.7391 -7.05069,-0.90479 -1.97439,-0.1058 -3.95056,-0.0677 -5.92622,-0.0638 -2.2478,0.0126 -4.49557,0.0104 -6.74337,-0.002 -2.22389,0.001 -4.44777,0.0129 -6.67164,0.0248 -3.13343,0.0193 -6.26685,0.024 -9.4002,-0.0194 -1.80815,-0.007 -3.61629,-0.0132 -5.42443,-0.025 -1.17883,-0.008 -2.35754,-0.007 -3.53633,0.0145 -3.30304,0.0465 -6.60609,0.10664 -9.90941,0.0907 -3.64283,-0.0143 -7.28546,-0.0777 -10.92828,-0.0699 -3.12824,0.0284 -6.25647,0.0374 -9.38472,0.002 -1.91847,-0.0154 -3.8371,-0.0399 -5.75558,-0.0134 -2.4277,0.0324 -4.85597,0.0479 -7.28333,-0.0311 -2.5512,-0.0722 -5.10197,-0.18583 -7.64824,-0.42492 -4.3072,-0.40008 -8.61422,-0.93336 -12.936858,-0.77752 -3.591495,-0.005 -7.183648,-0.005 -10.774403,-0.11502 0,0 2.322155,2.31862 2.322155,2.31862 z" />
  </g>
</svg>
